HIERARCHY
ROOT SimulationBone
{
	OFFSET 0.000000 0.000000 0.000000
	CHANNELS 6 Xposition Yposition Zposition Zrotation Yrotation Xrotation 
	JOINT Hips
	{
		OFFSET 0.000000 0.000000 0.000000
		CHANNELS 6 Xposition Yposition Zposition Zrotation Yrotation Xrotation 
		JOINT LeftUpLeg
		{
			OFFSET 0.103462 1.857831 10.548496
			CHANNELS 3 Zrotation Yrotation Xrotation
			JOINT LeftLeg
			{
				OFFSET 43.500000 -0.000038 -0.000010
				CHANNELS 3 Zrotation Yrotation Xrotation
				JOINT LeftFoot
				{
					OFFSET 42.372192 0.000011 0.000010
					CHANNELS 3 Zrotation Yrotation Xrotation
					JOINT LeftToe
					{
						OFFSET 17.299999 0.000001 -0.000001
						CHANNELS 3 Zrotation Yrotation Xrotation
						End Site
						{
							OFFSET 0.000000 0.000000 0.000000
						}
					}
				}
			}
		}
		JOINT RightUpLeg
		{
			OFFSET 0.103456 1.857825 -10.548502
			CHANNELS 3 Zrotation Yrotation Xrotation
			JOINT RightLeg
			{
				OFFSET 43.500038 -0.000023 0.000011
				CHANNELS 3 Zrotation Yrotation Xrotation
				JOINT RightFoot
				{
					OFFSET 42.372261 -0.000008 0.000011
					CHANNELS 3 Zrotation Yrotation Xrotation
					JOINT RightToe
					{
						OFFSET 17.299994 -0.000004 0.000002
						CHANNELS 3 Zrotation Yrotation Xrotation
						End Site
						{
							OFFSET 0.000000 0.000000 0.000000
						}
					}
				}
			}
		}
		JOINT Spine
		{
			OFFSET 6.901965 -2.603729 -0.000002
			CHANNELS 3 Zrotation Yrotation Xrotation
			JOINT Spine1
			{
				OFFSET 12.588101 -0.000004 0.000003
				CHANNELS 3 Zrotation Yrotation Xrotation
				JOINT Spine2
				{
					OFFSET 12.343205 0.000006 0.000001
					CHANNELS 3 Zrotation Yrotation Xrotation
					JOINT Neck
					{
						OFFSET 25.832897 -0.000008 -0.000001
						CHANNELS 3 Zrotation Yrotation Xrotation
						JOINT Head
						{
							OFFSET 11.766601 0.000009 -0.000008
							CHANNELS 3 Zrotation Yrotation Xrotation
							End Site
							{
								OFFSET 0.000000 0.000000 0.000000
							}
						}
					}
					JOINT LeftShoulder
					{
						OFFSET 19.745893 -1.480370 6.000097
						CHANNELS 3 Zrotation Yrotation Xrotation
						JOINT LeftArm
						{
							OFFSET 11.284136 -0.000006 -0.000021
							CHANNELS 3 Zrotation Yrotation Xrotation
							JOINT LeftForeArm
							{
								OFFSET 33.000042 0.000005 0.000030
								CHANNELS 3 Zrotation Yrotation Xrotation
								JOINT LeftHand
								{
									OFFSET 25.200008 0.000013 0.000010
									CHANNELS 3 Zrotation Yrotation Xrotation
									End Site
									{
										OFFSET 0.000000 0.000000 0.000000
									}
								}
							}
						}
					}
					JOINT RightShoulder
					{
						OFFSET 19.746088 -1.480379 -6.000076
						CHANNELS 3 Zrotation Yrotation Xrotation
						JOINT RightArm
						{
							OFFSET 11.284133 -0.000016 -0.000013
							CHANNELS 3 Zrotation Yrotation Xrotation
							JOINT RightForeArm
							{
								OFFSET 33.000095 0.000019 0.000001
								CHANNELS 3 Zrotation Yrotation Xrotation
								JOINT RightHand
								{
									OFFSET 25.199785 0.000138 0.000422
									CHANNELS 3 Zrotation Yrotation Xrotation
									End Site
									{
										OFFSET 0.000000 0.000000 0.000000
									}
								}
							}
						}
					}
				}
			}
		}
	}
}
MOTION
Frames: 9
Frame Time: 0.033333
-283.940634 0.000000 556.284418 0.000000 7.172056 0.000000 -1.918346 81.787910 5.133923 93.656680 9.817040 176.978501 151.357798 -12.832198 174.833185 -79.035787 -0.008860 -14.024057 81.517843 7.204877 -11.630718 21.454543 0.003100 0.000002 164.668580 11.429703 -177.378455 -48.994412 4.736113 -5.557946 90.386871 5.820058 12.922301 21.454553 -0.003109 -0.000017 10.080082 0.366970 0.771363 10.152059 0.664769 1.571945 9.834067 0.674386 1.567911 3.672339 -0.446247 -3.102443 -22.084090 8.839827 -6.974660 -167.284693 -71.844014 -14.499692 12.627562 65.725626 27.366835 -114.383300 -0.673399 3.422076 -3.022835 -2.759353 44.082273 -155.673890 67.864985 26.487100 20.688301 -55.173964 -21.102593 -109.812995 -1.337600 -3.135642 -19.865622 13.521582 -38.150025 
-283.673733 0.000000 557.376537 0.000000 6.924700 0.000000 -2.149196 85.332527 2.963047 92.095418 7.722433 175.839205 151.606116 -13.950699 173.822249 -74.841538 -1.947298 -8.620432 75.096263 3.123132 -10.685565 21.454551 0.003093 -0.000001 166.011026 12.459701 -178.959754 -40.523393 4.735935 -4.049095 81.443135 5.781981 12.630010 21.454558 -0.003108 -0.000017 9.908503 0.039796 0.895987 9.804188 0.003483 1.792085 9.486265 0.014438 1.792039 1.381462 -1.486880 -2.959286 -20.933253 8.207228 -6.634800 -167.240802 -72.363218 -14.543288 14.601689 64.658279 32.956827 -115.547212 -0.341167 3.447870 -2.864130 -2.408489 39.193412 -155.000297 68.608205 27.166422 21.595967 -55.975063 -24.209365 -110.822319 -1.548134 -3.164878 -20.230800 15.247859 -36.082602 
-283.436289 0.000000 558.116736 0.000000 6.664242 0.000000 -2.483683 88.367073 1.129641 90.668514 5.709757 175.405872 151.455552 -14.960604 173.638025 -70.980917 -3.098531 -1.971555 73.887552 -1.011512 -8.197643 21.454543 0.003094 -0.000000 167.040186 13.529798 179.804429 -33.188518 4.513396 -2.242279 72.809830 5.188632 11.557102 21.454557 -0.003108 -0.000017 9.811037 -0.237771 0.773885 9.605748 -0.538995 1.525349 9.287754 -0.529638 1.528582 -0.685544 -2.736032 -2.291921 -19.789657 8.239881 -6.110373 -168.497721 -73.084814 -13.250419 12.779969 61.855470 33.304337 -116.860999 -0.263988 3.497220 -3.200857 0.023031 39.501955 -156.556214 70.283507 25.524504 21.317413 -56.831788 -25.871232 -111.948993 -1.774607 -3.197888 -18.706399 16.382709 -34.169766 
-283.227966 0.000000 558.479463 0.000000 6.392762 0.000000 -2.918552 90.589897 -0.321929 89.122930 4.129329 175.422425 150.909820 -16.095795 173.973347 -67.007455 -3.419845 0.909241 75.500611 -3.056509 -8.507112 21.454555 0.003092 -0.000000 167.042112 14.869293 179.643537 -28.462691 4.928547 -0.458433 66.453123 4.319948 10.833629 21.454558 -0.003108 -0.000017 9.695721 -0.435866 0.572609 9.374440 -0.916707 1.108048 9.056367 -0.909864 1.113570 -2.592291 -3.714380 -1.497071 -19.028791 8.175680 -5.442556 -170.610667 -73.846318 -11.082726 10.311265 58.346071 32.514467 -118.244290 -0.077120 3.541341 -3.581097 -0.111507 41.306908 -159.499520 71.922828 22.465206 19.559498 -56.894335 -26.109518 -112.996587 -1.925935 -3.232439 -17.765102 16.550991 -32.136310 
-283.026544 0.000000 558.439711 0.000000 6.041400 0.000000 -3.438556 91.903542 -1.262600 87.930806 3.301170 175.619495 150.496880 -18.051194 174.853020 -62.776945 -3.460011 -0.473435 74.613137 -2.658037 -10.263822 21.454545 0.003092 0.000001 166.240698 15.583696 179.979801 -27.375586 5.536847 1.743531 64.059176 2.914345 10.804579 21.454568 -0.003107 -0.000017 9.640962 -0.541507 0.525442 9.264610 -1.123357 1.005886 8.946503 -1.117125 1.012658 -4.252819 -4.093421 -0.835939 -17.878210 8.227087 -4.822356 -173.793180 -75.461194 -7.831199 8.274767 55.459316 31.585377 -119.506304 0.074126 3.582447 -4.343521 -0.654065 43.076559 -160.860995 73.355125 21.046017 16.786906 -56.659780 -25.115104 -114.275007 -2.152380 -3.271396 -16.582929 15.865182 -31.222113 
-282.808197 0.000000 557.962660 0.000000 5.592683 0.000000 -4.030983 92.080803 -1.673589 87.295475 2.700447 175.891043 150.418032 -20.474001 176.239918 -58.445075 -3.443034 -2.904656 73.479278 -0.919505 -9.976290 21.454562 0.003086 -0.000001 165.180967 16.363298 -178.108507 -29.661357 5.405573 1.996488 65.386630 2.970073 11.781161 21.454563 -0.003107 -0.000017 9.741403 -0.687586 0.553517 9.464211 -1.418151 1.049009 9.146064 -1.411654 1.057561 -6.069755 -3.747353 -0.553773 -16.957586 7.439995 -4.153291 -177.761588 -75.987610 -3.779796 7.062208 52.118325 29.943474 -120.985695 0.197580 3.633718 -4.085402 -0.589798 44.715087 -162.835207 73.927802 19.014490 13.107318 -55.451359 -22.855287 -115.351308 -2.281840 -3.308120 -16.389220 14.822781 -30.906623 
-282.555884 0.000000 557.024025 0.000000 5.039368 0.000000 -4.645882 91.199966 -1.483141 87.080809 1.750556 176.461189 150.676855 -22.471604 177.796081 -53.854635 -2.801450 -5.519827 72.821885 0.968301 -9.732080 21.454555 0.003088 -0.000001 164.685396 17.759202 -176.296854 -32.669563 4.931233 0.930940 66.749998 3.975046 12.719860 21.454557 -0.003108 -0.000017 9.924536 -0.943205 0.497960 9.829904 -1.925311 0.914090 9.511647 -1.919619 0.925711 -7.446960 -4.250419 -0.097032 -16.851584 7.555127 -3.892886 -177.918778 -76.390120 -3.624824 6.375667 49.729648 28.422668 -121.433196 0.272459 3.646492 -3.995320 -0.401971 45.363415 -163.132375 74.958806 18.699704 9.328500 -55.175948 -20.568442 -115.885402 -2.272478 -3.331286 -16.766936 13.981279 -31.207930 
-282.272690 0.000000 555.612472 0.000000 4.351799 0.000000 -5.346347 89.187622 -0.811387 86.429399 0.881667 177.438012 149.648543 -24.548909 -179.767150 -50.043270 -1.954285 -7.456377 72.715048 2.272504 -9.921083 21.454553 0.003090 -0.000001 163.427644 19.440906 -175.010347 -35.664864 4.255070 0.231470 72.604242 4.232839 14.079894 21.454562 -0.003108 -0.000017 10.015263 -1.187102 0.441528 10.011699 -2.407953 0.778808 9.693335 -2.403068 0.793350 -8.828951 -5.034335 0.138316 -16.908099 7.506538 -3.895904 -178.156182 -76.278883 -3.380683 6.754342 47.661999 27.258120 -121.429111 0.158719 3.654183 -3.730016 -0.546560 46.509856 -163.295603 75.335716 18.529207 6.327261 -54.572207 -18.207304 -116.072303 -2.336666 -3.334744 -17.079467 13.786561 -31.247487 
-281.951529 0.000000 553.752450 0.000000 3.541380 0.000000 -6.023048 86.588127 0.086980 86.029100 0.541682 178.710512 148.466388 -26.951904 -176.745160 -46.261903 -1.033804 -8.354487 72.462754 2.873496 -9.929922 21.454557 0.003086 -0.000005 161.405279 21.441497 -173.389133 -40.189506 3.307191 -1.468868 80.292009 4.698885 14.970212 21.454558 -0.003107 -0.000017 10.245863 -1.324621 0.445902 10.472691 -2.684159 0.770199 10.154258 -2.679321 0.786413 -10.522115 -7.008341 0.275811 -16.773490 8.446232 -4.704697 -177.594795 -75.629503 -3.945313 6.683131 46.275775 25.108610 -120.850403 0.024336 3.640250 -2.822290 -0.931052 49.691026 -164.603092 75.817791 17.187999 4.272209 -54.053936 -15.523191 -116.365195 -2.360571 -3.345404 -17.473072 14.469146 -31.456009 
